<svg xmlns="http://www.w3.org/2000/svg" viewBox="0 0 32 32" width="12" height="12" style="border-color: rgba(0,0,0,0);border-width: bpx;border-style: undefined" filter="none">
    
    <g>
    <path d="M11.621 5.427l3.122-3.122c0.694-0.694 1.82-0.694 2.514 0l3.122 3.122h4.416c0.982 0 1.778 0.796 1.778 1.778v4.416l3.122 3.122c0.694 0.694 0.694 1.82 0 2.514l-3.122 3.122v4.416c0 0.982-0.796 1.778-1.778 1.778h-4.416l-3.122 3.122c-0.694 0.694-1.82 0.694-2.514 0l-3.122-3.122h-4.416c-0.982 0-1.778-0.796-1.778-1.778v-4.416l-3.122-3.122c-0.694-0.694-0.694-1.82 0-2.514l3.122-3.122v-4.416c0-0.982 0.796-1.778 1.778-1.778h4.416zM8 13.421v5.157h1.565v-2.086h1.71v2.086h1.572v-5.157h-1.572v1.805h-1.71v-1.805h-1.565zM13.69 16.004c0 0.603 0.116 1.105 0.349 1.506s0.536 0.694 0.91 0.88c0.374 0.185 0.847 0.278 1.418 0.278 0.562 0 1.031-0.107 1.408-0.322s0.664-0.515 0.864-0.901c0.199-0.386 0.299-0.88 0.299-1.483 0-0.83-0.228-1.476-0.684-1.937s-1.106-0.691-1.949-0.691c-0.822 0-1.464 0.235-1.924 0.704s-0.691 1.125-0.691 1.967zM15.255 16.011c0-0.525 0.096-0.902 0.287-1.129s0.445-0.341 0.76-0.341c0.329 0 0.59 0.112 0.783 0.336s0.288 0.579 0.288 1.064c0 0.577-0.092 0.977-0.276 1.2s-0.445 0.334-0.781 0.334c-0.327 0-0.586-0.114-0.776-0.341s-0.285-0.602-0.285-1.122zM19.242 13.421v1.274h1.596v3.884h1.565v-3.884h1.596v-1.274h-4.758z" fill="rgba(255,255,255,1)"></path>
    </g>
  </svg>