<svg xmlns="http://www.w3.org/2000/svg" viewBox="0 0 32 32" width="48" height="48" style="border-color: rgba(0,0,0,0);border-width: bpx;border-style: undefined" filter="none">
    
    <g>
    <path d="M19.157 5.864l-4.645 8.047 2.309 1.333 4.645-8.047c5.56 3.696 8.408 9.44 6.080 13.469-2.48 4.296-9.585 4.473-15.88 0.84-6.295-3.637-9.693-9.879-7.213-14.173 2.327-4.031 8.724-4.436 14.704-1.469zM21.179 2.364l2.309 1.333-2 3.464-2.309-1.333 2-3.464zM8.976 26.667h13.691v2.667h-15.977c-0.008 0-0.017 0-0.026 0-0.49 0-0.918-0.266-1.148-0.661l-0.003-0.006c-0.112-0.191-0.178-0.421-0.178-0.667s0.066-0.475 0.181-0.673l-0.003 0.006 3-5.196 2.309 1.333-1.845 3.196z" fill="rgba(249.9,85.935,31.11,1)"></path>
    </g>
  </svg>