<svg xmlns="http://www.w3.org/2000/svg" viewBox="0 0 32 32" width="48" height="48" style="border-color: rgba(0,0,0,0);border-width: bpx;border-style: undefined" filter="none">
    
    <g>
    <path d="M14.667 18.667v-4h2.667v4h6.667c0.736 0 1.333 0.597 1.333 1.333v0 8c0 0.736-0.597 1.333-1.333 1.333v0h-16c-0.736 0-1.333-0.597-1.333-1.333v0-8c0-0.736 0.597-1.333 1.333-1.333v0h6.667zM3.347 11.783c1.767-5.297 6.765-9.116 12.653-9.116s10.888 3.819 12.653 9.116l-2.531 0.843c-1.457-4.275-5.437-7.295-10.123-7.295s-8.666 3.020-10.1 7.22l-0.022 0.075-2.529-0.843zM8.408 13.469c1.094-3.205 4.078-5.469 7.592-5.469s6.498 2.264 7.575 5.413l0.017 0.056-2.531 0.844c-0.729-2.137-2.719-3.646-5.061-3.646s-4.332 1.509-5.050 3.609l-0.011 0.038-2.531-0.844z" fill="rgba(255,116.025,41.055,1)"></path>
    </g>
  </svg>