<svg xmlns="http://www.w3.org/2000/svg" viewBox="0 0 32 32" width="12" height="12" style="border-color: rgba(0,0,0,0);border-width: bpx;border-style: undefined" filter="none">
    
    <g>
    <path d="M26.651 12.209c0 5.253-3.13 11.084-9.388 17.494-0.011 0.011-0.021 0.021-0.032 0.032-0.349 0.339-0.802 0.505-1.253 0.499s-0.899-0.184-1.239-0.533c-6.259-6.432-9.39-12.262-9.39-17.492 0-2.876 1.192-5.48 3.119-7.365s4.59-3.051 7.531-3.051 5.604 1.166 7.531 3.051c1.927 1.885 3.119 4.489 3.119 7.365zM19.572 12.444c0-0.986-0.4-1.879-1.046-2.525s-1.539-1.046-2.525-1.046c-0.986 0-1.879 0.4-2.525 1.046s-1.046 1.539-1.046 2.525c0 0.986 0.4 1.879 1.046 2.526s1.539 1.046 2.525 1.046c0.986 0 1.879-0.4 2.525-1.046s1.046-1.539 1.046-2.525z" fill="rgba(255,255,255,1)"></path>
    </g>
  </svg>