<svg xmlns="http://www.w3.org/2000/svg" viewBox="0 0 32 32" width="12" height="12" style="border-color: rgba(0,0,0,0);border-width: bpx;border-style: undefined" filter="none">
    
    <g>
    <path d="M28.512 12.064c-1.664-5.312-6.656-9.184-12.48-9.184-5.888 0-10.88 3.84-12.544 9.184h-1.472v7.872h1.472c1.737 5.369 6.692 9.184 12.538 9.184 0.002 0 0.004 0 0.007 0h-0c5.824 0 10.784-3.872 12.48-9.184h1.504v-7.872h-1.504zM23.68 7.424c-0.544 0.224-1.088 0.448-1.568 0.64-0.512-0.896-1.024-1.76-1.536-2.624 1.12 0.48 2.144 1.12 3.104 1.984zM21.056 13.888h1.024l0.48 2.656 0.576-2.656h0.864l0.608 2.656 0.48-2.656h1.024l-0.896 4.224h-1.088l-0.576-2.4-0.544 2.4h-1.056l-0.896-4.224zM21.504 19.936c-0.128 0.608-0.288 1.184-0.384 1.792-0.032 0.16-0.096 0.224-0.288 0.192 1.81 0.222 0.439-0.013-0.932-0.243l-3.1-0.429v-1.312h4.704zM16.832 4.576c1.888 0.704 2.816 2.272 3.68 4-1.248 0.192-2.464 0.352-3.68 0.544v-4.544zM16.832 10.688c0.48-0.064 0.992-0.096 1.504-0.16 0.8-0.128 1.632-0.288 2.464-0.416 0.128-0.064 0.256-0.064 0.288 0.128 0.192 0.608 0.32 1.216 0.448 1.824h-4.704v-1.376zM15.2 4.64v4.384c-1.248 0-2.432-0.192-3.648-0.48 0.64-1.824 2.4-3.744 3.648-3.904zM10.528 12.064c0.128-0.608 0.256-1.184 0.352-1.76 0.064-0.224 0.128-0.256 0.352-0.224 1.248 0.32 2.528 0.512 3.84 0.576 0.032 0 0.064 0 0.128 0.032v1.376h-4.672zM10.944 13.888l-0.896 4.224h-1.056l-0.576-2.4-0.544 2.432h-1.056l-0.896-4.256h0.992l0.48 2.656 0.608-2.656h0.864l0.576 2.656 0.512-2.656h0.992zM11.424 5.44c-0.512 0.864-0.992 1.728-1.504 2.624-0.512-0.224-1.024-0.416-1.6-0.64 0.884-0.802 1.91-1.469 3.032-1.956l0.072-0.028zM7.136 8.64c0.768 0.32 1.504 0.64 2.272 0.96-0.256 0.8-0.448 1.632-0.576 2.464h-3.648c0.479-1.315 1.141-2.45 1.967-3.443l-0.015 0.019zM5.184 19.936h3.648c0.128 0.832 0.32 1.664 0.576 2.464-0.768 0.32-1.504 0.64-2.272 0.96-0.811-0.974-1.473-2.109-1.926-3.345l-0.026-0.079zM8.32 24.576c0.576-0.224 1.088-0.416 1.6-0.608 0.512 0.864 0.992 1.728 1.504 2.592-1.12-0.448-2.144-1.12-3.104-1.984zM15.2 27.36c-1.376-0.256-2.912-2.048-3.616-3.872 0.672-0.256 3.008-0.576 3.616-0.48v4.352zM15.2 21.312c-0.672 0.064-1.344 0.128-2.016 0.224-0.64 0.096-1.312 0.256-1.984 0.384-0.16 0.032-0.224 0.032-0.288-0.16-0.192-0.608-0.32-1.216-0.448-1.824h4.736v1.376zM16 15.712l-0.576 2.432h-1.056l-0.896-4.256h1.024l0.48 2.656 0.576-2.656h0.864l0.608 2.656 0.48-2.656h1.024l-0.896 4.224h-1.056l-0.576-2.4zM16.8 27.36v-4.448c1.248 0.16 2.432 0.32 3.648 0.48-0.576 1.728-2.24 3.776-3.648 3.968zM20.576 26.592c0.512-0.864 0.992-1.728 1.536-2.624 0.48 0.192 0.992 0.384 1.568 0.608-0.89 0.8-1.914 1.475-3.029 1.985l-0.075 0.031zM24.864 23.36c-0.736-0.32-1.504-0.64-2.272-0.96 0.256-0.8 0.448-1.632 0.576-2.464h3.648c-0.48 1.315-1.141 2.45-1.967 3.443l0.015-0.019zM23.168 12.064c-0.146-0.944-0.347-1.775-0.608-2.579l0.032 0.115c0.768-0.32 1.504-0.64 2.272-0.96 0.811 0.974 1.473 2.109 1.927 3.345l0.026 0.079h-3.648z" fill="rgba(255,0,0,1)"></path>
    </g>
  </svg>