<svg xmlns="http://www.w3.org/2000/svg" viewBox="0 0 32 32" width="26" height="26" style="border-color: rgba(0,0,0,0);border-width: bpx;border-style: undefined" filter="none">
    
    <g>
    <path d="M25.952 13.28c-0.832-0.512-1.408 0.064-1.856 0.768-1.184 1.824-2.464 3.616-3.52 5.536-0.896 1.728-2.112 2.144-4.032 2.272-2.464 0.16-3.904-0.704-4.96-2.816-0.736-1.504-1.76-2.88-2.688-4.288-0.576-0.832-1.056-2.336-2.432-1.376-1.184 0.864 0.032 1.792 0.512 2.592 2.368 4 5.76 7.52 5.28 12.768-0.288 2.784-0.064 3.264 1.632 3.264 4.128 0 6.208 0.032 6.176-1.6-0.128-5.152 1.984-8.544 4.192-13.056 0.32-0.64 1.024-1.632 1.376-2.208 0.352-0.672 1.184-1.312 0.32-1.856zM19.68 16.96c-0.16-1.6-1.152-2.816-3.168-2.752-1.856 0.064-2.912 1.088-2.976 3.008-0.096 2.112 1.184 3.040 3.008 3.264 1.728 0.192 3.136-1.344 3.136-3.52zM27.904 0h-23.84c-0.544 0-0.992 0.448-0.992 1.024v9.632c0 0.576 0.448 1.024 0.992 1.024h23.84c0.544 0 1.024-0.448 1.024-1.024v-9.632c0-0.576-0.48-1.024-1.024-1.024zM27.904 10.656h-23.84v-9.632h23.84v9.632zM15.904 9.376h0.16c0.103-0.007 0.185-0.089 0.192-0.191l0-0.001v-6.72c0-0.096-0.096-0.16-0.192-0.16h-0.16c-0.096 0-0.192 0.064-0.192 0.16v6.72c0 0.096 0.096 0.192 0.192 0.192zM8 8.096c0.992 0 1.536-0.8 1.536-2.304 0-1.408-0.544-2.208-1.44-2.208s-1.536 0.8-1.536 2.272c0 1.44 0.608 2.24 1.44 2.24zM8.064 4.032c0.608 0 0.864 0.704 0.864 1.792 0 1.12-0.288 1.824-0.896 1.824-0.544 0-0.864-0.64-0.864-1.792 0-1.184 0.352-1.824 0.896-1.824zM10.016 6.912c0 0.64 0.576 1.184 1.472 1.184 0.832 0 1.504-0.512 1.504-1.248 0-0.544-0.352-0.928-0.896-1.152 0.544-0.256 0.736-0.672 0.736-1.024 0-0.544-0.448-1.088-1.28-1.088-0.768 0-1.344 0.48-1.344 1.152 0 0.384 0.192 0.768 0.672 0.992l0.032 0.032c-0.544 0.224-0.896 0.608-0.896 1.152zM10.752 4.704c0-0.384 0.288-0.704 0.768-0.704 0.544 0 0.736 0.352 0.736 0.704 0 0.416-0.288 0.672-0.672 0.8-0.512-0.128-0.832-0.352-0.832-0.8zM11.424 5.952c0.576 0.16 0.96 0.416 0.96 0.928 0 0.48-0.352 0.8-0.864 0.8-0.576 0-0.896-0.384-0.896-0.832 0-0.416 0.288-0.768 0.8-0.896zM22.24 7.552h-1.952v-0.032l0.352-0.32c0.896-0.896 1.504-1.536 1.504-2.336 0-0.64-0.416-1.28-1.344-1.28-0.512 0-0.928 0.192-1.248 0.448l0.192 0.416c0.192-0.16 0.544-0.384 0.928-0.384 0.64 0 0.864 0.416 0.864 0.864 0 0.672-0.512 1.216-1.632 2.304l-0.448 0.448v0.352h2.784v-0.48zM24.192 4.192v3.84h0.576v-4.384h-0.512l-0.96 0.512 0.128 0.448 0.768-0.416z" fill="rgba(0,131.07,255,1)"></path>
    </g>
  </svg>