<svg xmlns="http://www.w3.org/2000/svg" viewBox="0 0 32 32" width="22" height="22" style="border-color: rgba(0,0,0,0);border-width: bpx;border-style: undefined" filter="none">
    
    <g>
    <path d="M28.896 15.232c1.504-1.536 1.44-3.84-0.064-5.376-1.728-1.728-3.456-3.424-5.152-5.152-1.6-1.6-3.968-1.6-5.568 0-4.96 4.96-9.92 9.952-14.912 14.912-1.6 1.6-1.6 3.968 0 5.568 0.928 0.96 1.888 1.92 2.848 2.848 0.192 0.192 0.544 0.32 0.832 0.32 1.376 0.032 2.784 0.032 4.192 0.032 1.376 0 2.72-0.032 4.096 0 0.448 0 0.768-0.128 1.088-0.448 2.304-2.336 4.64-4.64 6.944-6.976 1.92-1.888 3.84-3.776 5.696-5.728zM19.36 23.072l-1.856 1.856c-0.64 0.672-1.312 1.312-1.984 1.984-0.143 0.133-0.333 0.217-0.543 0.224l-0.001 0c-2.592 0.032-5.216 0-7.808 0-0.2-0.014-0.378-0.096-0.512-0.224l0 0c-0.896-0.864-1.76-1.728-2.656-2.624-1.056-1.12-1.056-2.656 0.032-3.776 2.104-2.11 4.189-4.185 6.283-6.252l0.117-0.116c0.352-0.352 0.928-0.352 1.312 0l7.616 7.616c0.352 0.384 0.352 0.96 0 1.312zM19.232 27.648h10.784v0.832h-10.784v-0.832z" fill="rgba(249.9,172.89000000000001,20.91,1)"></path>
    </g>
  </svg>