<svg width="12" height="12" viewBox="0 0 12 12" fill="none" xmlns="http://www.w3.org/2000/svg">
<path fill-rule="evenodd" clip-rule="evenodd" d="M12 11.304V8.94667H12.0007C12.0008 8.86408 11.9702 8.78439 11.9149 8.72305C11.8596 8.66171 11.7835 8.62309 11.7013 8.61467C11.5493 8.6 11.4273 8.58533 11.3347 8.572C10.4104 8.44008 9.51135 8.16924 8.668 7.76867C8.60277 7.73787 8.52881 7.73095 8.459 7.7491C8.38919 7.76726 8.32796 7.80933 8.286 7.868L7.25933 9.304C5.2097 8.42436 3.5763 6.79097 2.69667 4.74133L4.13533 3.71333C4.25533 3.628 4.29667 3.46867 4.23333 3.33533C3.832 2.49189 3.56049 1.59262 3.428 0.668C3.41467 0.575334 3.40067 0.453334 3.38533 0.3C3.37706 0.217722 3.33851 0.141455 3.27715 0.0860139C3.2158 0.0305729 3.13603 -8.33024e-05 3.05333 0H0.696C0.527215 -7.60348e-05 0.364684 0.0638715 0.241202 0.178939C0.117721 0.294007 0.0424816 0.45163 0.0306667 0.62C0.01 0.911334 0 1.14933 0 1.33333C0 7.22467 4.77533 12 10.6667 12C10.8507 12 11.0887 11.9893 11.38 11.9693C11.5484 11.9575 11.706 11.8823 11.8211 11.7588C11.9361 11.6353 12.0001 11.4728 12 11.304ZM6 6C6.36819 6 6.66667 5.70152 6.66667 5.33333C6.66667 4.96514 6.36819 4.66667 6 4.66667C5.63181 4.66667 5.33333 4.96514 5.33333 5.33333C5.33333 5.70152 5.63181 6 6 6ZM9.33333 5.33333C9.33333 5.70152 9.03486 6 8.66667 6C8.29848 6 8 5.70152 8 5.33333C8 4.96514 8.29848 4.66667 8.66667 4.66667C9.03486 4.66667 9.33333 4.96514 9.33333 5.33333ZM11.3333 6C11.7015 6 12 5.70152 12 5.33333C12 4.96514 11.7015 4.66667 11.3333 4.66667C10.9651 4.66667 10.6667 4.96514 10.6667 5.33333C10.6667 5.70152 10.9651 6 11.3333 6Z" fill="#6FCF97"/>
</svg>
