<svg xmlns="http://www.w3.org/2000/svg" viewBox="0 0 32 32" width="24" height="24" style="border-color: rgba(0,0,0,0);border-width: bpx;border-style: undefined" filter="none">
    
    <g>
    <path d="M2.016 4.16v23.68c0 1.184 0.96 2.144 2.144 2.144h23.68c1.184 0 2.144-0.96 2.144-2.144v-23.68c0-1.184-0.96-2.176-2.144-2.176h-23.68c-1.184 0-2.144 0.992-2.144 2.176zM26.976 29.12h-21.952c-1.184 0-2.144-0.96-2.144-2.144v-21.952c0-1.184 0.96-2.144 2.144-2.144h21.952c1.184 0 2.144 0.96 2.144 2.144v21.952c0 1.184-0.96 2.144-2.144 2.144zM8.64 24.384l7.36-7.328 7.36 7.328 1.056-1.024-7.36-7.36 7.36-7.36-1.056-1.056-7.36 7.36-7.36-7.36-1.024 1.056 7.328 7.36-7.328 7.36 1.024 1.024z" fill="rgba(16.065,16.065,16.065,1)"></path>
    </g>
  </svg>