<svg xmlns="http://www.w3.org/2000/svg" viewBox="0 0 32 32" width="24" height="24" style="border-color: rgba(0,0,0,0);border-width: bpx;border-style: undefined" filter="none">
    
    <g>
    <path d="M26.435 21.333h-16.657c-0.491 0-0.889 0.398-0.889 0.889s0.398 0.889 0.889 0.889h16.532l-2.731 2.731c-0.347 0.347-0.347 0.91 0 1.257s0.91 0.347 1.257 0l4.185-4.185c0.417-0.417 0.417-1.092 0-1.508l-4.256-4.256c-0.347-0.347-0.91-0.347-1.257 0s-0.347 0.91 0 1.257l2.927 2.927zM5.565 7.111h16.657c0.491 0 0.889 0.398 0.889 0.889s-0.398 0.889-0.889 0.889h-16.532l2.731 2.731c0.347 0.347 0.347 0.91 0 1.257s-0.91 0.347-1.257 0l-4.185-4.185c-0.417-0.417-0.417-1.092 0-1.508l4.256-4.256c0.347-0.347 0.91-0.347 1.257 0s0.347 0.91 0 1.257l-2.927 2.927z" fill="rgba(108.11999999999999,108.11999999999999,108.11999999999999,1)"></path>
    </g>
  </svg>