<svg xmlns="http://www.w3.org/2000/svg" viewBox="0 0 32 32" width="20" height="20" style="border-color: rgba(0,0,0,0);border-width: bpx;border-style: undefined" filter="none">
    
    <g>
    <path d="M22.56 24.864h-16.32c-0.211-0.003-0.381-0.173-0.384-0.384v-16.32c0-0.224 0.16-0.416 0.384-0.416h12.544c0.224 0 0.544-0.128 0.704-0.288l3.264-3.264c0.16-0.16 0.096-0.288-0.128-0.288h-20.224c-0.224 0-0.384 0.192-0.384 0.416v24c0 0.224 0.16 0.384 0.384 0.384h24c0.004 0 0.009 0 0.014 0 0.204 0 0.37-0.166 0.37-0.37 0-0.005-0-0.010-0-0.015l0 0.001v-15.104c0-0.192-0.128-0.256-0.256-0.096l-3.296 3.264c-0.16 0.16-0.288 0.48-0.288 0.672v7.424c-0.003 0.211-0.173 0.381-0.384 0.384h-0zM9.76 13.184l-2.144 2.176c-0.074 0.068-0.12 0.164-0.12 0.272s0.046 0.204 0.12 0.272l0 0 5.952 5.952c0.16 0.16 0.416 0.16 0.576 0l15.744-15.744c0.16-0.16 0.16-0.416 0-0.544l-2.144-2.176c-0.074-0.074-0.175-0.12-0.288-0.12s-0.214 0.046-0.288 0.12l-0 0-13.024 13.056c-0.074 0.074-0.175 0.12-0.288 0.12s-0.214-0.046-0.288-0.12l-0-0-3.232-3.264c-0.079-0.060-0.179-0.096-0.288-0.096s-0.209 0.036-0.289 0.097l0.001-0.001z" fill="rgba(18.104999999999997,193.035,136.935,1)"></path>
    </g>
  </svg>