<svg xmlns="http://www.w3.org/2000/svg" viewBox="0 0 32 32" width="24" height="24" style="border-color: rgba(0,0,0,0);border-width: bpx;border-style: undefined" filter="none">
    
    <g>
    <path d="M24.889 4.841l-10.195 5.825h-7.583v10.667h7.583l10.195 5.825v-22.318zM26.667 4.841v22.318c0 0.982-0.796 1.778-1.778 1.778-0.325 0-0.629-0.087-0.891-0.239l0.009 0.005-9.785-5.591h-7.111c-0.982 0-1.778-0.796-1.778-1.778v-10.667c0-0.982 0.796-1.778 1.778-1.778h7.111l9.785-5.591c0.852-0.487 1.938-0.191 2.426 0.662 0.147 0.253 0.234 0.558 0.234 0.882 0 0 0 0 0 0v0z" fill="rgba(255,0,0,1)"></path><path d="M12.124 28.444h1.707l-1.067-5.333h-1.707l1.067 5.333zM16 8.889v14.222h-1.422l0.997 4.985c0.193 0.963-0.432 1.899-1.395 2.092-0.105 0.022-0.225 0.035-0.349 0.035-0 0-0 0-0 0h-1.707c-0.847 0-1.577-0.598-1.743-1.429l-1.492-7.46h5.333v-12.444h1.778z" fill="rgba(255,0,0,1)"></path>
    </g>
  </svg>